<svg width="730" height="233" viewBox="0 0 730 233" fill="none" xmlns="http://www.w3.org/2000/svg">
<path d="M288 202.582C286.895 202.582 286 201.687 286 200.582V68.4534C286 67.3488 286.895 66.4534 288 66.4534H326.223C326.954 66.4534 327.626 66.8519 327.977 67.4929L329.226 69.7731C329.774 70.7735 331.046 71.114 332.02 70.5209L338.222 66.745C338.536 66.5543 338.895 66.4534 339.262 66.4534H384.541C384.723 66.4534 384.902 66.4772 385.077 66.528C388.863 67.6269 396.164 70.571 397.049 74.1937C397.909 77.7082 397.478 99.7238 397.11 111.964C397.077 113.043 396.192 113.892 395.113 113.892H364.052C363.49 113.892 362.954 113.656 362.575 113.24L355.641 105.642C349.731 99.8995 328.289 101.431 327.408 110.798V200.582C327.408 201.687 326.513 202.582 325.408 202.582H288Z" fill="#333333"/>
<path fill-rule="evenodd" clip-rule="evenodd" d="M606.867 124.885V192.733C606.55 195.683 608.578 201.779 619.222 202.566C629.56 203.33 652.686 202.919 663.877 202.594C664.488 202.577 665.052 202.28 665.425 201.796C668.79 197.425 675.047 190.509 677.197 192.733C680.048 195.683 680.048 202.566 683.85 202.566H728.519C729.152 202.566 730.229 201.976 729.469 199.616C728.519 196.666 721.866 196.666 720.915 192.733C720.158 189.597 720.596 120.456 720.912 85.9167C720.914 85.6702 720.873 85.4394 720.784 85.2096C718.456 79.2079 712.217 67.8544 704.759 67.8544C697.174 67.8544 648.605 67.202 625.096 66.8735C624.979 66.8718 624.87 66.8798 624.754 66.8994C618.682 67.9282 606.867 71.861 606.867 79.6539V115.052H644.436C645.667 115.052 646.606 113.951 646.485 112.725C646.081 108.638 646.168 103.253 648.685 103.253H679.098V116.986C679.098 118.09 678.202 118.986 677.098 118.986H617.321C613.837 119.313 606.867 120.952 606.867 124.885ZM648.784 163.234C647.679 163.234 646.784 162.338 646.784 161.234V151.468C646.784 150.363 647.679 149.468 648.784 149.468H675.197C676.301 149.468 677.197 150.363 677.197 151.468V161.234C677.197 162.338 676.301 163.234 675.197 163.234H648.784Z" fill="#333333"/>
<path d="M601.492 169.709V200.582C601.492 201.687 600.597 202.582 599.492 202.582H548.199C544 202.269 535.409 199.389 534.634 190.372C533.881 181.621 534.285 137.362 534.605 114.441C534.62 113.325 533.72 112.415 532.604 112.415H525.975C524.87 112.415 523.975 111.52 523.975 110.415V76.8456C523.975 75.741 524.87 74.8456 525.975 74.8456H533.602C534.707 74.8456 535.602 73.9501 535.602 72.8456V59C535.602 57.8954 536.498 57 537.602 57H575.268C576.372 57 577.268 57.8954 577.268 59V72.8456C577.268 73.9501 578.163 74.8456 579.268 74.8456H589.802C590.907 74.8456 591.802 75.741 591.802 76.8456V110.415C591.802 111.52 590.907 112.415 589.802 112.415H579.268C578.163 112.415 577.268 113.311 577.268 114.415V167.83C577.268 168.457 577.849 169.709 580.175 169.709H601.492Z" fill="#333333"/>
<path fill-rule="evenodd" clip-rule="evenodd" d="M405.139 76.432V187.683C405.139 195.405 412.281 200.938 416.154 202.46C416.371 202.545 416.593 202.581 416.825 202.578C445.621 202.246 503.661 201.589 508.181 201.589C512.718 201.589 516.374 194.967 517.634 191.656V75.4387C517.634 67.4922 509.441 66.1678 505.345 66.4989H416.483C405.139 66.4989 404.194 73.121 405.139 76.432ZM472.926 162.878H447.402C445.89 162.878 445.511 161.618 445.511 160.987V109.939C445.511 109.183 447.402 108.363 448.347 108.048H471.981C474.25 108.048 474.817 109.309 474.817 109.939V160.987C474.817 162.5 473.556 162.878 472.926 162.878Z" fill="#333333"/>
<path fill-rule="evenodd" clip-rule="evenodd" d="M28 233V27H260V139H225L260 174.5V233H193.5L154 199.5V233H28ZM149 228V189.5L195 228.5H255.5V176L213.5 134H255.5V32H33V228H149Z" fill="#333333"/>
<path d="M43.5 221V40.5H245V123H188.5V130.5L242 178.5V221H205L147 173H140V221H43.5Z" fill="#333333"/>
<path d="M8.73012 10.9445L18.2527 14.5197L24.5955 6.56791L24.138 16.7292L33.6606 20.3044L23.8552 23.0092L23.3977 33.1705L17.7952 24.681L7.98984 27.3859L14.3326 19.4341L8.73012 10.9445Z" fill="#333333"/>
</svg>
