<svg width="975" height="975" viewBox="0 0 975 975" fill="none" xmlns="http://www.w3.org/2000/svg">
<circle cx="487.5" cy="487.5" r="470.5" fill="#353535" stroke="#2C2C2B" stroke-width="34"/>
<circle cx="488" cy="487" r="354" fill="#2C2C2B"/>
<path d="M125.183 383.739L80.4812 370.767L85.5989 353.131C86.5786 349.755 88.0185 347.049 89.9188 345.013C91.8087 342.959 94.0339 341.625 96.5943 341.011C99.1443 340.378 101.896 340.49 104.85 341.348C107.819 342.209 110.187 343.59 111.954 345.492C113.707 347.389 114.798 349.717 115.228 352.476C115.662 355.221 115.381 358.311 114.384 361.745L110.958 373.553L103.362 371.349L106.345 361.068C106.869 359.264 107.056 357.693 106.908 356.357C106.759 355.02 106.275 353.917 105.454 353.048C104.638 352.164 103.495 351.509 102.025 351.082C100.541 350.652 99.2031 350.587 98.0114 350.888C96.8239 351.174 95.793 351.845 94.9186 352.901C94.034 353.938 93.3278 355.366 92.7999 357.185L90.9504 363.558L127.925 374.288L125.183 383.739ZM111.845 353.695L135.412 348.489L132.384 358.922L108.887 363.889L111.845 353.695ZM133.307 295.089C137.953 297.133 141.518 299.753 144.002 302.948C146.492 306.13 147.932 309.61 148.321 313.39C148.703 317.15 148.067 320.91 146.413 324.668C144.747 328.454 142.392 331.473 139.348 333.726C136.304 335.979 132.768 337.262 128.74 337.575C124.712 337.888 120.383 337.026 115.751 334.988C111.105 332.943 107.537 330.331 105.047 327.149C102.556 323.968 101.121 320.497 100.739 316.737C100.344 312.971 100.979 309.195 102.645 305.409C104.299 301.65 106.647 298.645 109.691 296.392C112.727 294.119 116.259 292.826 120.287 292.513C124.321 292.186 128.661 293.044 133.307 295.089ZM129.289 304.221C126.279 302.897 123.543 302.231 121.08 302.223C118.623 302.201 116.504 302.767 114.722 303.919C112.94 305.072 111.57 306.737 110.612 308.914C109.654 311.092 109.352 313.227 109.706 315.319C110.06 317.412 111.071 319.363 112.741 321.174C114.417 322.971 116.76 324.531 119.769 325.855C122.778 327.18 125.512 327.853 127.968 327.874C130.432 327.882 132.554 327.31 134.336 326.157C136.118 325.004 137.488 323.339 138.446 321.162C139.404 318.985 139.706 316.85 139.352 314.757C138.998 312.665 137.983 310.72 136.307 308.923C134.638 307.113 132.298 305.545 129.289 304.221ZM123.207 281.827L116.24 277.668L135.832 244.843L142.799 249.002L135.496 261.238L168.497 280.935L163.511 289.287L130.511 269.59L123.207 281.827ZM181.41 262.118L174.96 270.461L147.961 229.282L155.717 219.248L202.356 235.02L195.907 243.363L160.366 230.626L160.143 230.914L181.41 262.118ZM166.532 251.45L181.766 231.742L187.843 236.44L172.609 256.148L166.532 251.45ZM226.239 170.172L218.889 176.886C217.887 176.058 216.841 175.464 215.753 175.103C214.654 174.732 213.54 174.58 212.411 174.647C211.282 174.714 210.165 174.996 209.059 175.493C207.964 175.979 206.925 176.672 205.941 177.572C204.162 179.196 203.016 181.054 202.503 183.143C201.981 185.222 202.122 187.432 202.928 189.774C203.723 192.105 205.209 194.462 207.386 196.845C209.624 199.295 211.868 201.021 214.117 202.023C216.378 203.016 218.557 203.334 220.654 202.979C222.751 202.623 224.666 201.653 226.4 200.069C227.373 199.18 228.156 198.229 228.749 197.215C229.353 196.192 229.754 195.137 229.953 194.052C230.142 192.956 230.122 191.856 229.894 190.752C229.676 189.637 229.232 188.545 228.562 187.474L235.942 180.794C237.193 182.545 238.107 184.501 238.685 186.661C239.264 188.8 239.442 191.028 239.219 193.345C238.998 195.641 238.315 197.927 237.172 200.202C236.03 202.456 234.357 204.59 232.153 206.603C229.088 209.403 225.714 211.213 222.03 212.033C218.358 212.843 214.622 212.573 210.822 211.221C207.033 209.859 203.433 207.31 200.019 203.574C196.596 199.826 194.388 195.994 193.397 192.078C192.405 188.162 192.488 184.412 193.648 180.828C194.797 177.234 196.882 174.057 199.902 171.298C201.893 169.479 203.994 168.073 206.206 167.079C208.428 166.075 210.69 165.506 212.991 165.375C215.282 165.231 217.546 165.554 219.784 166.341C222.034 167.119 224.185 168.396 226.239 170.172ZM258.07 184.15L249.441 190.212L235.834 142.889L246.211 135.599L286.096 164.463L277.467 170.524L247.285 147.843L246.987 148.052L258.07 184.15ZM247.014 169.558L267.396 155.24L271.812 161.526L251.429 175.844L247.014 169.558ZM290.903 161.668L268.817 120.696L284.982 111.982C288.09 110.307 291.057 109.473 293.884 109.481C296.704 109.476 299.252 110.211 301.528 111.687C303.81 113.142 305.684 115.23 307.151 117.951C308.617 120.671 309.324 123.388 309.272 126.102C309.22 128.815 308.393 131.352 306.791 133.713C305.203 136.067 302.835 138.092 299.687 139.789L289.384 145.343L285.642 138.401L294.545 133.602C296.212 132.703 297.431 131.676 298.202 130.52C298.98 129.343 299.358 128.098 299.338 126.783C299.324 125.448 298.954 124.107 298.228 122.76C297.495 121.4 296.581 120.36 295.488 119.641C294.401 118.902 293.16 118.547 291.764 118.576C290.361 118.592 288.82 119.053 287.139 119.959L281.298 123.108L299.566 156.998L290.903 161.668ZM317.629 95.7561L336.493 138.307L327.497 142.296L308.632 99.7445L317.629 95.7561ZM329.355 99.7249L326.615 92.088L362.596 79.1774L365.336 86.8143L351.923 91.627L364.903 127.801L355.747 131.086L342.768 94.9122L329.355 99.7249ZM386.802 121.34L376.547 123.799L381.321 74.7899L393.653 71.8332L420.108 113.355L409.853 115.814L390.144 83.6124L389.79 83.6972L386.802 121.34ZM381.896 103.703L406.118 97.8953L407.909 105.365L383.687 111.173L381.896 103.703ZM425.604 112.482L419.645 66.3192L429.405 65.0595L434.325 103.175L454.115 100.621L455.154 108.668L425.604 112.482ZM485.161 60.9636L496.158 96.4066L496.59 96.4097L508.115 61.1274L519.024 61.2053L502.646 107.635L489.965 107.545L474.229 60.8856L485.161 60.9636ZM526.024 109.148L515.553 107.897L537.028 63.5855L549.62 65.0894L560.032 113.209L549.561 111.959L542.243 74.9203L541.882 74.8772L526.024 109.148ZM527.539 90.903L552.272 93.857L551.361 101.485L526.628 98.5306L527.539 90.903ZM565.49 114.297L575.921 68.9353L585.512 71.1409L576.899 108.595L596.345 113.067L594.527 120.974L565.49 114.297ZM600.762 122.796L615.386 78.6079L624.729 81.7L612.654 118.185L631.598 124.455L629.048 132.158L600.762 122.796ZM635.079 134.571L653.956 92.0251L682.624 104.745L679.334 112.162L659.66 103.433L655.162 113.57L673.361 121.645L670.07 129.061L651.872 120.987L647.364 131.145L667.121 139.911L663.83 147.328L635.079 134.571ZM691.841 109.316L701.353 114.886L700.383 137.547L700.775 137.777L720.063 125.842L729.575 131.412L699.72 148.8L691.405 162.999L682.972 158.061L691.286 143.861L691.841 109.316ZM782.1 172.444L752.339 208.232L745.803 202.797L748.965 167.324L748.703 167.106L729.972 189.631L722.405 183.339L752.167 147.551L758.807 153.073L755.537 188.426L755.852 188.688L774.569 166.181L782.1 172.444ZM804.284 229.513C800.55 232.95 796.721 235.166 792.798 236.161C788.885 237.168 785.119 237.092 781.5 235.934C777.902 234.777 774.713 232.688 771.932 229.666C769.131 226.623 767.309 223.255 766.464 219.564C765.62 215.872 765.862 212.118 767.189 208.302C768.516 204.486 771.041 200.865 774.765 197.438C778.5 194.001 782.324 191.779 786.236 190.772C790.149 189.766 793.904 189.841 797.502 190.998C801.111 192.145 804.316 194.241 807.117 197.284C809.898 200.306 811.71 203.662 812.554 207.353C813.42 211.046 813.189 214.8 811.862 218.616C810.545 222.443 808.019 226.075 804.284 229.513ZM797.528 222.171C799.947 219.945 801.654 217.705 802.648 215.451C803.653 213.209 803.984 211.04 803.642 208.946C803.3 206.852 802.323 204.929 800.712 203.179C799.101 201.429 797.267 200.296 795.208 199.782C793.149 199.268 790.955 199.412 788.627 200.217C786.309 201.032 783.941 202.553 781.522 204.779C779.102 207.006 777.39 209.24 776.386 211.483C775.392 213.736 775.066 215.91 775.408 218.004C775.75 220.099 776.726 222.021 778.337 223.772C779.948 225.522 781.783 226.654 783.842 227.169C785.901 227.683 788.089 227.532 790.407 226.717C792.735 225.913 795.109 224.398 797.528 222.171ZM791.667 250.933L829.665 224.052L840.271 239.044C842.301 241.913 843.52 244.726 843.928 247.481C844.358 250.239 844.015 252.811 842.9 255.196C841.806 257.585 840.003 259.667 837.492 261.443C834.969 263.228 832.413 264.22 829.825 264.418C827.249 264.607 824.748 264.01 822.321 262.626C819.904 261.256 817.663 259.111 815.598 256.192L808.497 246.154L814.954 241.586L821.136 250.325C822.221 251.859 823.332 252.984 824.47 253.701C825.609 254.418 826.773 254.726 827.964 254.626C829.164 254.538 830.389 254.052 831.638 253.168C832.9 252.276 833.784 251.27 834.291 250.15C834.807 249.043 834.924 247.818 834.644 246.477C834.384 245.138 833.707 243.696 832.613 242.15L828.78 236.732L797.35 258.967L791.667 250.933ZM823.476 259.221L812.864 280.898L806.59 272.029L817.346 250.556L823.476 259.221ZM848.474 265.651L855.615 261.8L873.764 295.444L866.623 299.296L859.858 286.754L826.033 305L821.415 296.439L855.24 278.193L848.474 265.651ZM835.337 323.259L878.635 306.177L890.145 335.353L882.597 338.33L874.699 318.309L864.382 322.379L871.688 340.899L864.14 343.877L856.834 325.357L846.496 329.436L854.428 349.541L846.88 352.519L835.337 323.259Z" fill="white"/>
<path fill-rule="evenodd" clip-rule="evenodd" d="M312.309 662V306.584H712.583V499.82H652.197L712.583 561.069V662H597.849L529.699 604.202V662H312.309ZM521.072 653.373V586.948L600.437 654.236H704.819V563.657L632.356 491.193H704.819V315.21H320.935V653.373H521.072Z" fill="white"/>
<path d="M339.051 641.296V329.876H686.703V472.215H589.223V485.154L681.527 567.97V641.296H617.69L517.622 558.481H505.545V641.296H339.051Z" fill="white"/>
<path d="M279.062 278.883L295.492 285.051L306.435 271.332L305.646 288.863L322.075 295.032L305.158 299.698L304.369 317.23L294.702 302.583L277.785 307.249L288.728 293.53L279.062 278.883Z" fill="white"/>
<path fill-rule="evenodd" clip-rule="evenodd" d="M913.1 456.284C908.241 453.526 904.229 452.188 898.754 451.499C894.767 450.998 889.207 451.34 885.489 452.316C879.003 454.019 873.533 457.095 868.984 461.597C865.163 465.38 862.167 470.354 860.628 475.471C859.837 478.101 859.265 481.976 859.271 484.664C859.273 486.003 859.614 489.139 859.883 490.295C860.108 491.264 860.301 492.027 860.484 492.67C860.574 492.986 860.707 493.469 860.781 493.743C861.487 496.381 863.801 500.683 866.077 503.588C868.55 506.743 872.58 510.291 875.948 512.277C877.935 513.449 881.723 515.309 882.122 515.309C882.205 515.309 882.393 515.37 882.539 515.444C883.408 515.886 885.243 516.455 887.099 516.859C887.521 516.95 888.142 517.086 888.479 517.159C892.11 517.953 897.718 517.953 901.36 517.16C901.698 517.086 902.215 516.979 902.51 516.921C902.806 516.863 903.22 516.76 903.431 516.693C903.641 516.626 904.124 516.486 904.504 516.382C904.884 516.278 905.332 516.139 905.501 516.073C905.669 516.006 906.221 515.795 906.727 515.604C908.266 515.022 910.602 513.948 911.635 513.347C913.84 512.065 914.054 511.925 915.776 510.641C918.623 508.518 921.125 506.138 923.405 503.383C923.855 502.839 923.84 502.592 923.356 502.592C923.106 502.592 923.059 502.482 923.059 501.902V501.213H922.282C921.804 501.213 921.495 501.243 921.299 501.108C920.911 500.842 920.966 499.932 921.027 496.869C921.072 494.644 921.063 492.643 921.007 492.422C920.941 492.157 920.802 492.019 920.602 492.019C920.333 492.019 920.299 491.914 920.299 491.105C920.299 490.359 920.244 490.162 920.002 490.033C919.839 489.945 919.684 489.684 919.657 489.453C919.593 488.893 919.164 488.893 919.1 489.453C919.058 489.819 918.984 489.874 918.535 489.874C918.09 489.874 918.012 489.818 917.97 489.464C917.906 488.923 917.538 488.8 917.538 489.32C917.538 489.55 917.416 489.776 917.239 489.87C917 489.998 916.93 490.223 916.894 490.98C916.852 491.85 916.816 491.937 916.465 492.02L916.082 492.11L916.002 505.316L915.477 505.716C915.188 505.936 914.871 506.116 914.771 506.116C914.637 506.116 914.6 505.278 914.628 502.86C914.665 499.7 914.686 499.186 914.488 499.08C914.435 499.052 914.368 499.052 914.281 499.04C914.034 499.005 913.914 498.861 913.858 498.531C913.782 498.084 913.753 498.07 912.822 498.026C912.205 497.997 911.864 497.915 911.862 497.796C911.861 497.695 911.862 493.387 911.865 488.223C911.869 479.975 911.841 478.823 911.637 478.745C911.479 478.684 911.405 478.444 911.405 477.994C911.405 477.423 911.357 477.324 911.059 477.282C910.754 477.239 910.709 477.132 910.669 476.365C910.641 475.841 910.535 475.423 910.401 475.312C910.259 475.195 910.177 474.839 910.175 474.341C910.174 473.909 910.069 473.258 909.942 472.893C909.799 472.482 909.674 471.333 909.614 469.861C909.56 468.558 909.468 467.462 909.41 467.426C909.352 467.39 909.215 468.614 909.106 470.146C908.969 472.063 908.843 472.996 908.699 473.14C908.571 473.268 908.491 473.694 908.491 474.249C908.491 474.874 908.423 475.187 908.27 475.273C908.125 475.354 908.032 475.713 908.001 476.309C907.959 477.138 907.92 477.228 907.571 477.309C907.255 477.383 907.179 477.503 907.138 477.996C907.111 478.325 906.998 478.667 906.886 478.756C906.724 478.887 906.669 481.014 906.608 489.614C906.539 499.159 906.504 500.338 906.284 500.581C906.07 500.817 906.037 501.4 906.037 504.94V509.027H904.203L904.121 501.902L902.817 501.808V498.293C902.817 494.861 902.81 494.777 902.506 494.777C902.188 494.777 902.146 494.712 901.984 493.973L901.891 493.551H899.143L899.05 493.973C898.89 494.703 898.857 494.752 898.495 494.804L898.14 494.854L898.046 499.68C897.994 502.335 897.942 505.836 897.931 507.46L897.91 510.414L892.942 510.329L893.03 480.068H891.784L891.742 477.81C891.704 475.8 891.67 475.546 891.431 475.5C891.185 475.453 891.163 475.641 891.163 477.762V480.075L885.719 479.991L885.677 477.731C885.642 475.881 885.594 475.471 885.413 475.471C885.231 475.471 885.183 475.881 885.148 477.731L885.106 479.991L883.839 480.083L883.725 493.406C883.627 504.757 883.578 506.729 883.393 506.729C883.176 506.729 881.205 505.456 880.458 504.834C876.301 501.371 873.831 498.369 871.996 494.547C870.7 491.848 870.178 489.935 869.832 486.609C869.593 484.316 869.826 481.464 870.467 478.842C871.282 475.509 873.28 471.34 875.051 469.278C876.687 467.374 877.594 466.469 879.231 465.107C880.542 464.017 883.796 462.13 885.719 461.344C887.462 460.632 889.152 460.16 891.47 459.738C893.259 459.413 898.623 459.374 900.287 459.675C902.631 460.099 905.189 460.757 906.267 461.213C908.49 462.154 908.804 462.31 910.228 463.183C912.367 464.494 914.696 466.569 915.894 468.231C916.152 468.589 916.439 468.882 916.532 468.882C916.625 468.882 917.019 468.624 917.409 468.308C917.798 467.992 918.616 467.354 919.225 466.89C919.835 466.427 920.412 465.979 920.508 465.895C920.604 465.81 921.007 465.5 921.404 465.205C922.276 464.557 922.373 464.356 922.051 463.864C920.868 462.06 915.972 457.914 913.1 456.284Z" fill="white"/>
<path fill-rule="evenodd" clip-rule="evenodd" d="M917.134 455.225C911.874 451.421 905.965 449.126 899.075 448.213C897.187 447.962 891.36 447.923 889.629 448.149C886.76 448.523 885.601 448.753 883.362 449.391C877.166 451.156 872.489 453.737 867.618 458.08C866.214 459.333 865.352 460.26 863.561 462.447C862.78 463.399 860.892 466.117 860.892 466.287C860.892 466.327 860.648 466.765 860.349 467.261C858.39 470.512 857.371 471.686 856.165 479.866C855.916 481.557 855.957 487.226 856.233 489.121C856.55 491.295 857.431 494.817 857.979 496.092C858.051 496.261 858.267 496.813 858.458 497.32C858.829 498.3 859.923 500.479 860.711 501.808C865.566 509.988 872.93 515.803 882.292 518.851C884.816 519.673 887.919 520.26 891.311 520.558C893.85 520.78 895.097 520.767 897.654 520.491C903.278 519.883 906.176 519.142 910.418 517.228C912.844 516.133 913.86 515.598 915.195 514.709C915.678 514.387 916.504 513.837 917.029 513.487C919.017 512.163 922.476 509.019 923.916 507.227C926.196 504.391 927.187 502.926 926.971 502.71C926.919 502.657 926.659 502.614 926.394 502.614C925.962 502.614 925.824 502.744 925.054 503.88C922.531 507.602 917.779 512.05 914.265 513.978C913.957 514.147 913.464 514.43 913.17 514.607C910.863 515.996 907.302 517.459 904.282 518.258C899.246 519.59 891.755 519.94 887.642 519.035C887.264 518.952 886.266 518.736 885.426 518.556C882.633 517.956 878.922 516.594 876.261 515.19C875.669 514.877 874.521 514.271 873.71 513.842C872.899 513.413 871.865 512.544 871.414 512.227C870.453 511.549 866.357 507.542 865.096 505.99C861.28 501.297 858.4 495.27 857.511 489.416C857.258 487.744 857.167 481.978 857.371 480.515C858.186 474.692 859.862 470.199 862.957 465.546C868.008 457.952 876.101 452.384 885.12 450.298C898.571 447.187 911.936 450.998 921.526 460.68C922.827 461.993 923.775 462.835 923.899 462.787C924.013 462.744 924.188 462.575 924.289 462.412C924.447 462.159 924.39 462.013 923.89 461.379C923.2 460.505 920.262 457.602 919.284 456.827C918.906 456.527 917.938 455.806 917.134 455.225Z" fill="white"/>
<path fill-rule="evenodd" clip-rule="evenodd" d="M106.1 456.284C101.241 453.526 97.229 452.188 91.7535 451.499C87.7667 450.998 82.2069 451.34 78.4892 452.316C72.0033 454.019 66.5333 457.095 61.9843 461.597C58.163 465.38 55.1666 470.354 53.628 475.471C52.8369 478.101 52.2649 481.976 52.2705 484.664C52.2733 486.003 52.6143 489.139 52.8827 490.295C53.1077 491.264 53.3007 492.027 53.4838 492.67C53.5737 492.986 53.7072 493.469 53.7807 493.743C54.4872 496.381 56.8014 500.683 59.0774 503.588C61.5496 506.743 65.5795 510.291 68.9484 512.277C70.9351 513.449 74.723 515.309 75.1216 515.309C75.2048 515.309 75.393 515.37 75.5394 515.444C76.4075 515.886 78.2434 516.455 80.0993 516.859C80.521 516.95 81.1421 517.086 81.4794 517.159C85.11 517.953 90.7185 517.953 94.3604 517.16C94.6978 517.086 95.2153 516.979 95.5105 516.921C95.8057 516.863 96.2197 516.76 96.4306 516.693C96.6414 516.626 97.1244 516.486 97.504 516.382C97.8835 516.278 98.332 516.139 98.5007 516.073C98.6694 516.006 99.2214 515.795 99.7275 515.604C101.266 515.022 103.602 513.948 104.635 513.347C106.84 512.065 107.054 511.925 108.776 510.641C111.623 508.518 114.125 506.138 116.405 503.383C116.855 502.839 116.84 502.592 116.356 502.592C116.106 502.592 116.059 502.482 116.059 501.902V501.213H115.282C114.804 501.213 114.495 501.243 114.299 501.108C113.911 500.842 113.966 499.932 114.027 496.869C114.072 494.644 114.063 492.643 114.007 492.422C113.941 492.157 113.802 492.019 113.602 492.019C113.333 492.019 113.299 491.914 113.299 491.105C113.299 490.359 113.244 490.162 113.002 490.033C112.839 489.945 112.684 489.684 112.657 489.453C112.593 488.893 112.164 488.893 112.1 489.453C112.058 489.819 111.984 489.874 111.535 489.874C111.09 489.874 111.012 489.818 110.97 489.464C110.906 488.923 110.538 488.8 110.538 489.32C110.538 489.55 110.416 489.776 110.239 489.87C110 489.998 109.93 490.223 109.894 490.98C109.852 491.85 109.816 491.937 109.465 492.02L109.082 492.11L109.002 505.316L108.477 505.716C108.188 505.936 107.871 506.116 107.771 506.116C107.637 506.116 107.6 505.278 107.628 502.86C107.665 499.7 107.686 499.186 107.488 499.08C107.435 499.052 107.368 499.052 107.281 499.04C107.034 499.005 106.914 498.861 106.858 498.531C106.782 498.084 106.753 498.07 105.822 498.026C105.205 497.997 104.864 497.915 104.862 497.796C104.861 497.695 104.862 493.387 104.865 488.223C104.869 479.975 104.841 478.823 104.637 478.745C104.479 478.684 104.405 478.444 104.405 477.994C104.405 477.423 104.357 477.324 104.059 477.282C103.754 477.239 103.709 477.132 103.669 476.365C103.641 475.841 103.535 475.423 103.401 475.312C103.259 475.195 103.177 474.839 103.175 474.341C103.174 473.909 103.069 473.258 102.942 472.893C102.799 472.482 102.674 471.333 102.614 469.861C102.56 468.558 102.468 467.462 102.41 467.426C102.352 467.39 102.215 468.614 102.106 470.146C101.969 472.063 101.843 472.996 101.699 473.14C101.571 473.268 101.491 473.694 101.491 474.249C101.491 474.874 101.423 475.187 101.27 475.273C101.125 475.354 101.032 475.713 101.001 476.309C100.959 477.138 100.92 477.228 100.571 477.309C100.255 477.383 100.179 477.503 100.138 477.996C100.111 478.325 99.9978 478.667 99.8865 478.756C99.7238 478.887 99.6692 481.014 99.6076 489.614C99.5392 499.159 99.5044 500.338 99.2842 500.581C99.0704 500.817 99.0374 501.4 99.0374 504.94V509.027H97.203L97.1206 501.902L95.8172 501.808V498.293C95.8172 494.861 95.8097 494.777 95.5057 494.777C95.188 494.777 95.1458 494.712 94.9836 493.973L94.8913 493.551H92.1427L92.0504 493.973C91.8903 494.703 91.857 494.752 91.4945 494.804L91.1402 494.854L91.0457 499.68C90.9937 502.335 90.942 505.836 90.9307 507.46L90.9101 510.414L85.9424 510.329L86.0304 480.068H84.7845L84.7421 477.81C84.7044 475.8 84.6701 475.546 84.4313 475.5C84.1853 475.453 84.163 475.641 84.163 477.762V480.075L78.7192 479.991L78.6767 477.731C78.6421 475.881 78.5941 475.471 78.4125 475.471C78.231 475.471 78.183 475.881 78.1483 477.731L78.1058 479.991L76.839 480.083L76.7248 493.406C76.6274 504.757 76.5784 506.729 76.3928 506.729C76.1758 506.729 74.2049 505.456 73.4582 504.834C69.3009 501.371 66.8313 498.369 64.9963 494.547C63.7001 491.848 63.1784 489.935 62.8316 486.609C62.5925 484.316 62.8258 481.464 63.467 478.842C64.2821 475.509 66.2805 471.34 68.0511 469.278C69.6866 467.374 70.5938 466.469 72.2307 465.107C73.5424 464.017 76.7956 462.13 78.7192 461.344C80.4615 460.632 82.1518 460.16 84.4696 459.738C86.2592 459.413 91.6227 459.374 93.287 459.675C95.6306 460.099 98.1893 460.757 99.2674 461.213C101.49 462.154 101.804 462.31 103.228 463.183C105.367 464.494 107.696 466.569 108.894 468.231C109.152 468.589 109.439 468.882 109.532 468.882C109.625 468.882 110.019 468.624 110.409 468.308C110.798 467.992 111.616 467.354 112.225 466.89C112.835 466.427 113.412 465.979 113.508 465.895C113.604 465.81 114.007 465.5 114.404 465.205C115.276 464.557 115.373 464.356 115.051 463.864C113.868 462.06 108.972 457.914 106.1 456.284Z" fill="white"/>
<path fill-rule="evenodd" clip-rule="evenodd" d="M110.134 455.225C104.874 451.421 98.9649 449.126 92.0746 448.213C90.1871 447.962 84.3603 447.923 82.6294 448.149C79.76 448.523 78.6008 448.753 76.3621 449.391C70.166 451.156 65.4885 453.737 60.6177 458.08C59.2135 459.333 58.3519 460.26 56.5607 462.447C55.7802 463.399 53.8919 466.117 53.8919 466.287C53.8919 466.327 53.6476 466.765 53.349 467.261C51.3898 470.512 50.3713 471.686 49.1649 479.866C48.9156 481.557 48.9575 487.226 49.2332 489.121C49.5498 491.295 50.4315 494.817 50.9789 496.092C51.0513 496.261 51.2672 496.813 51.4584 497.32C51.8289 498.3 52.9226 500.479 53.7114 501.808C58.5662 509.988 65.93 515.803 75.2921 518.851C77.8163 519.673 80.9193 520.26 84.3108 520.558C86.8502 520.78 88.097 520.767 90.6544 520.491C96.2778 519.883 99.1757 519.142 103.418 517.228C105.844 516.133 106.86 515.598 108.195 514.709C108.678 514.387 109.504 513.837 110.029 513.487C112.017 512.163 115.476 509.019 116.916 507.227C119.196 504.391 120.187 502.926 119.971 502.71C119.919 502.657 119.659 502.614 119.394 502.614C118.962 502.614 118.824 502.744 118.054 503.88C115.531 507.602 110.779 512.05 107.265 513.978C106.957 514.147 106.464 514.43 106.17 514.607C103.863 515.996 100.302 517.459 97.2819 518.258C92.246 519.59 84.7552 519.94 80.6422 519.035C80.2639 518.952 79.2665 518.736 78.4257 518.556C75.6327 517.956 71.9219 516.594 69.2612 515.19C68.6689 514.877 67.5209 514.271 66.7102 513.842C65.8994 513.413 64.8648 512.544 64.4145 512.227C63.4535 511.549 59.3569 507.542 58.0955 505.99C54.2805 501.297 51.3997 495.27 50.5113 489.416C50.2575 487.744 50.1667 481.978 50.3713 480.515C51.1855 474.692 52.8621 470.199 55.9572 465.546C61.0082 457.952 69.1012 452.384 78.12 450.298C91.5714 447.187 104.936 450.998 114.526 460.68C115.827 461.993 116.775 462.835 116.899 462.787C117.013 462.744 117.188 462.575 117.289 462.412C117.447 462.159 117.39 462.013 116.89 461.379C116.2 460.505 113.262 457.602 112.284 456.827C111.906 456.527 110.938 455.806 110.134 455.225Z" fill="white"/>
<path d="M326.04 877.007L311.323 869.546L332.37 828.031L347.208 835.554C351.384 837.671 354.557 840.324 356.728 843.514C358.906 846.691 360.021 850.238 360.074 854.155C360.14 858.078 359.081 862.196 356.895 866.507C354.703 870.831 352.001 874.133 348.79 876.412C345.593 878.698 342.052 879.902 338.169 880.022C334.299 880.15 330.256 879.145 326.04 877.007ZM323.913 866.476L329.487 869.302C332.082 870.617 334.498 871.264 336.734 871.243C338.99 871.215 341.058 870.454 342.936 868.96C344.835 867.459 346.569 865.162 348.138 862.067C349.693 858.999 350.512 856.263 350.593 853.858C350.687 851.46 350.082 849.352 348.778 847.536C347.474 845.719 345.524 844.153 342.929 842.838L337.334 840.002L323.913 866.476ZM353.019 890.134L368.862 846.368L398.353 857.043L395.591 864.672L375.354 857.346L371.579 867.775L390.299 874.552L387.537 882.181L368.817 875.404L365.034 885.854L385.357 893.211L382.596 900.84L353.019 890.134ZM422.181 876.557C422.426 874.731 421.994 873.165 420.886 871.86C419.777 870.555 418.073 869.631 415.773 869.087C414.21 868.718 412.838 868.627 411.657 868.815C410.479 868.988 409.512 869.39 408.756 870.021C408.015 870.655 407.529 871.459 407.299 872.432C407.078 873.236 407.08 873.984 407.306 874.676C407.546 875.371 407.946 876.018 408.505 876.617C409.067 877.202 409.745 877.759 410.538 878.289C411.335 878.804 412.201 879.289 413.137 879.744L416.977 881.679C418.848 882.588 420.522 883.607 422 884.734C423.477 885.862 424.693 887.107 425.647 888.469C426.602 889.831 427.239 891.32 427.557 892.937C427.891 894.557 427.842 896.313 427.41 898.204C426.74 900.972 425.464 903.208 423.583 904.912C421.719 906.605 419.343 907.701 416.453 908.201C413.582 908.69 410.303 908.499 406.617 907.628C402.96 906.764 399.907 905.451 397.459 903.689C395.026 901.93 393.309 899.773 392.31 897.217C391.328 894.65 391.186 891.728 391.882 888.452L401.15 890.642C400.894 892.186 401.029 893.556 401.556 894.755C402.1 895.942 402.96 896.948 404.136 897.77C405.33 898.582 406.752 899.183 408.404 899.573C410.026 899.956 411.49 900.053 412.796 899.864C414.116 899.678 415.208 899.243 416.07 898.559C416.932 897.876 417.492 896.988 417.75 895.897C417.99 894.88 417.89 893.953 417.449 893.117C417.023 892.285 416.293 891.489 415.258 890.731C414.237 889.976 412.948 889.204 411.391 888.416L406.752 886.011C403.152 884.18 400.48 882.015 398.735 879.516C396.99 877.017 396.521 874.096 397.327 870.752C397.96 868.006 399.256 865.783 401.215 864.082C403.189 862.384 405.609 861.267 408.476 860.73C411.343 860.193 414.428 860.315 417.731 861.096C421.093 861.891 423.892 863.159 426.127 864.902C428.376 866.648 429.959 868.711 430.876 871.092C431.792 873.473 431.953 876.017 431.36 878.726L422.181 876.557ZM447.261 913.915L430.855 912.159L435.807 865.878L452.349 867.648C457.004 868.146 460.912 869.501 464.074 871.714C467.237 873.911 469.537 876.832 470.976 880.475C472.43 884.12 472.9 888.346 472.385 893.152C471.87 897.973 470.515 902.018 468.321 905.288C466.142 908.56 463.259 910.941 459.671 912.431C456.098 913.923 451.961 914.418 447.261 913.915ZM441.537 904.822L447.751 905.487C450.644 905.797 453.132 905.545 455.215 904.732C457.315 903.905 458.978 902.46 460.205 900.397C461.448 898.32 462.254 895.557 462.623 892.107C462.989 888.687 462.783 885.839 462.006 883.561C461.244 881.285 459.931 879.53 458.067 878.294C456.203 877.058 453.825 876.286 450.932 875.976L444.695 875.309L441.537 904.822ZM477.141 916.625L476.52 870.084L507.881 869.665L507.989 877.778L486.469 878.065L486.617 889.155L506.524 888.89L506.632 897.003L486.725 897.268L486.873 908.381L508.485 908.092L508.593 916.205L477.141 916.625ZM530.734 914.227L529.563 907.234L543.369 889.367C544.534 887.789 545.497 886.384 546.258 885.15C547.034 883.914 547.583 882.739 547.903 881.625C548.221 880.497 548.279 879.327 548.076 878.117C547.851 876.772 547.35 875.665 546.575 874.796C545.797 873.913 544.834 873.298 543.685 872.953C542.534 872.593 541.286 872.525 539.941 872.75C538.537 872.986 537.359 873.475 536.408 874.218C535.457 874.961 534.787 875.91 534.396 877.066C534.006 878.222 533.934 879.533 534.179 880.997L524.966 882.54C524.463 879.536 524.707 876.815 525.696 874.375C526.686 871.936 528.304 869.906 530.552 868.285C532.8 866.664 535.523 865.586 538.721 865.051C542.009 864.5 544.968 864.604 547.599 865.361C550.242 866.102 552.415 867.381 554.118 869.201C555.821 871.02 556.894 873.253 557.337 875.898C557.627 877.631 557.57 879.4 557.165 881.203C556.775 883.005 555.887 885.082 554.498 887.434C553.108 889.772 551.076 892.639 548.404 896.036L542.801 903.726L542.854 904.04L562.131 900.812L563.46 908.747L530.734 914.227ZM588.166 902.964C584.411 904.053 580.913 904.078 577.671 903.042C574.443 902.001 571.592 899.957 569.116 896.911C566.656 893.86 564.715 889.89 563.293 885.001C561.861 880.132 561.36 875.77 561.791 871.916C562.236 868.059 563.54 864.84 565.703 862.262C567.877 859.664 570.832 857.816 574.568 856.718C578.303 855.619 581.781 855.576 585 856.588C588.234 857.595 591.082 859.6 593.544 862.603C596.002 865.592 597.94 869.523 599.357 874.397C600.798 879.296 601.302 883.696 600.87 887.597C600.452 891.495 599.168 894.754 597.017 897.377C594.867 899.999 591.916 901.862 588.166 902.964ZM585.864 895.137C588.423 894.384 590.087 892.497 590.857 889.476C591.626 886.454 591.247 882.372 589.72 877.231C588.724 873.844 587.546 871.127 586.186 869.079C584.84 867.026 583.368 865.619 581.77 864.857C580.186 864.091 578.544 863.958 576.844 864.458C574.3 865.206 572.639 867.076 571.86 870.069C571.082 873.062 571.432 877.097 572.909 882.174C573.917 885.605 575.101 888.368 576.46 890.464C577.828 892.541 579.314 893.967 580.916 894.744C582.514 895.506 584.164 895.637 585.864 895.137ZM612.459 894.282L609.655 887.769L618.807 867.127C619.562 865.317 620.162 863.723 620.608 862.343C621.067 860.958 621.32 859.686 621.365 858.528C621.405 857.356 621.183 856.207 620.697 855.08C620.158 853.827 619.408 852.871 618.448 852.212C617.482 851.54 616.4 851.172 615.203 851.111C613.999 851.035 612.771 851.267 611.518 851.806C610.21 852.369 609.183 853.125 608.436 854.073C607.69 855.021 607.265 856.103 607.161 857.319C607.058 858.535 607.3 859.825 607.887 861.188L599.307 864.882C598.103 862.085 597.691 859.384 598.071 856.779C598.45 854.174 599.539 851.817 601.336 849.707C603.133 847.597 605.52 845.901 608.498 844.619C611.56 843.301 614.459 842.696 617.194 842.805C619.938 842.894 622.354 843.619 624.441 844.981C626.528 846.342 628.102 848.254 629.162 850.718C629.857 852.332 630.223 854.063 630.26 855.911C630.311 857.754 629.943 859.982 629.155 862.598C628.361 865.2 627.072 868.468 625.286 872.405L621.677 881.208L621.803 881.5L639.755 873.771L642.937 881.161L612.459 894.282ZM664.326 870.041C661.541 871.642 658.764 872.557 655.995 872.786C653.238 873.008 650.706 872.585 648.397 871.518C646.088 870.45 644.239 868.769 642.85 866.475L651.126 861.717C652.116 863.228 653.502 864.118 655.282 864.387C657.063 864.657 658.794 864.309 660.475 863.342C661.815 862.572 662.827 861.597 663.512 860.417C664.202 859.216 664.531 857.917 664.497 856.521C664.469 855.104 664.055 853.7 663.254 852.307C662.439 850.889 661.419 849.814 660.196 849.085C658.985 848.347 657.681 847.979 656.283 847.978C654.885 847.978 653.505 848.36 652.145 849.125C650.962 849.805 649.953 850.708 649.116 851.836C648.292 852.957 647.813 854.115 647.679 855.31L639.311 858.312L628.989 835.933L653.658 821.752L657.668 828.727L640.033 838.864L644.8 849.573L645.036 849.437C645.171 848.031 645.766 846.588 646.821 845.108C647.875 843.628 649.289 842.378 651.062 841.359C653.492 839.962 655.988 839.287 658.55 839.335C661.111 839.383 663.518 840.088 665.769 841.45C668.012 842.8 669.871 844.772 671.346 847.367C672.922 850.079 673.681 852.858 673.623 855.706C673.57 858.532 672.754 861.203 671.177 863.718C669.605 866.212 667.321 868.32 664.326 870.041Z" fill="white"/>
</svg>
